<svg viewBox="0 0 120 46" fill="none" xmlns="http://www.w3.org/2000/svg"><path d="M24.455 23.639c13.686-.062 15.251-10.273 15.251-10.273h-14.02a.75.75 0 00-.727.575l-.825 3.652a.682.682 0 01-.655.523h-2.092a.434.434 0 01-.451-.417c0-.044 0-.089.017-.133l.816-3.625a.467.467 0 00-.355-.558c-.036-.009-.071-.009-.105-.009h-3.901s-12.419 0-15.175 11.665L0 34.619h4.308s6.595.08 7.924-5.964l.683-2.845a2.833 2.833 0 012.739-2.171h8.802-.001zM25.935 9.642l.788-3.466a.527.527 0 00-.398-.628c-.036-.009-.072-.009-.116-.009h-1.87a.867.867 0 00-.869.673l-.78 3.492a.756.756 0 01-.727.584h-5.974s-10.637 0-8.145-10.283c0 0 1.967.036 17.31 0 16.274-.044 15.14 10.327 15.176 10.283H26.45a.533.533 0 01-.532-.531c0-.036.008-.072.017-.116v.001zM93.538 23.835l11.674-10.478-8.174-.032c-1.093.022-1.551.405-2.381 1.075l-5.77 5.224L93.23.614l.096-.573A.036.036 0 0093.293 0L89.81.005c-2.081.094-3.729 1.55-4.289 3.473-.085.293-7.072 31.202-7.072 31.202-.004.02 3.429.032 3.442.032 2.128-.187 3.714-1.354 4.381-3.541l.901-3.964c-.015-.03.005-.032 0 0l3.388 5.081c1.128 1.888 2.533 2.356 3.766 2.356h6.016l-6.804-10.81c-.01.012-.009-.013 0 0h-.002zM80.864 12.862c-3.373.039-7.672.216-9.703 3.202l.602-2.696h-4.77a3.154 3.154 0 00-3.077 2.466L59.712 34.72h4.808a3.105 3.105 0 003.03-2.43l1.486-6.663c.2-.899.569-1.757 1.127-2.49a6.4 6.4 0 015.151-2.544c.078 0 .155.003.233.005v-.006h3.588l1.727-7.73h.002zM59.276 15.432c-.607-.785-1.753-2.57-8.664-2.57-6.91 0-8.319 2.6-8.97 3.524-.602.85-1.018 1.894-1.236 3.112h6.834a2.15 2.15 0 01.882-1.048c.653-.403 1.378-.598 2.215-.598.315 0 .655.03 1.015.087.313.052.611.149.884.29.243.126.44.29.6.504.125.169.188.424.188.763 0 .297-.042.694-.243.901-.203.212-.562.392-1.043.518-.582.153-1.333.27-2.24.343a87.02 87.02 0 00-3.392.35c-2.576.302-4.615 1.096-6.058 2.358-1.502 1.313-2.265 3.074-2.265 5.24 0 .796.152 1.568.448 2.294.301.74.775 1.401 1.409 1.958.616.544 1.39.978 2.294 1.295.894.312 1.939.47 3.107.47 1.247 0 2.472-.218 3.64-.649a7.68 7.68 0 001.584-.8l.356-.242a.98.98 0 00.956 1.187h5.4l1.33-6.052 1.67-7.604c.15-.885.225-1.694.225-2.406V18.5c0-1.24-.308-2.272-.921-3.063l-.005-.005zm-7.851 10.615a12.928 12.928 0 01-.545 1.528 4.224 4.224 0 01-.796 1.22c-.33.35-.742.643-1.228.868-.471.22-1.081.332-1.812.332-.654 0-1.208-.144-1.691-.442-.373-.23-.534-.532-.534-1.007 0-.475.082-.853.242-1.13.167-.287.377-.507.642-.67.3-.188.655-.33 1.06-.424.448-.106.915-.184 1.392-.234a49.52 49.52 0 002.422-.215c.323-.037.64-.097.947-.18l-.099.354zM6.219 38.645l-3.073 4.022-.562 3.188H1.172l.567-3.212L.08 38.647h1.514L2.606 41.3l1.923-2.654h1.69v-.002zM12.964 45.998c-1.044 0-1.87-.38-2.482-1.137-.611-.758-.82-1.663-.628-2.714.179-1.064.67-1.938 1.478-2.621.808-.683 1.763-1.026 2.869-1.026 1.03 0 1.851.382 2.466 1.143.615.762.83 1.668.644 2.719-.186 1.064-.68 1.937-1.484 2.616-.804.68-1.758 1.02-2.863 1.02zm.165-1.39a2.72 2.72 0 001.797-.659 2.77 2.77 0 00.973-1.69c.117-.686-.007-1.255-.371-1.704-.365-.45-.88-.675-1.545-.675-.666 0-1.256.222-1.767.664a2.842 2.842 0 00-.952 1.706c-.124.686-.008 1.251.346 1.694.354.443.86.665 1.52.665zM24.824 45.998c-.85 0-1.506-.233-1.969-.7-.463-.467-.625-1.068-.489-1.802l.855-4.851h1.412l-.836 4.737c-.061.371-.005.668.17.89.176.224.493.335.953.335.46 0 .817-.113 1.076-.34.257-.226.417-.52.479-.885l.836-4.737h1.412l-.855 4.85c-.145.81-.49 1.43-1.039 1.86-.548.429-1.216.643-2.005.643zM39.227 41.137a2.626 2.626 0 01-1.73 2.029l1.092 2.688h-1.443l-1.005-2.503h-1.187l-.443 2.502h-1.412l1.274-7.208h2.806c.652 0 1.185.25 1.6.751.416.501.564 1.082.448 1.741zm-1.824.66c.22-.207.358-.46.413-.762.054-.302 0-.554-.166-.756-.165-.203-.402-.304-.71-.304h-1.39l-.376 2.133h1.465c.29 0 .543-.102.763-.308l.001-.004zM54.273 45.998c-.72 0-1.346-.175-1.875-.524a2.883 2.883 0 01-1.128-1.405c-.223-.588-.276-1.227-.16-1.922a4.215 4.215 0 011.468-2.616 4.19 4.19 0 012.797-1.03c.687 0 1.28.151 1.777.453.497.301.867.72 1.107 1.257l-1.298.68c-.324-.674-.896-1.01-1.72-1.01-.687 0-1.283.22-1.787.66-.505.44-.816 1.01-.932 1.71-.124.694-.014 1.26.33 1.7.343.44.849.66 1.515.66.892 0 1.589-.35 2.09-1.052l1.163.752c-.392.52-.88.933-1.468 1.236a4.04 4.04 0 01-1.879.453v-.002zM67.31 45.855l-.228-1.297h-2.931l-.678 1.297h-1.537l3.775-7.208h1.787l1.267 7.208H67.31zm-2.466-2.626h2.003l-.433-3.008-1.57 3.008zM79.99 41.137a2.627 2.627 0 01-1.73 2.029l1.091 2.688h-1.443l-1.005-2.503h-1.187l-.443 2.502h-1.412l1.274-7.208h2.806c.652 0 1.185.25 1.6.751.416.501.565 1.082.449 1.741zm-1.825.66c.22-.207.358-.46.413-.762.054-.302 0-.554-.166-.756-.165-.203-.402-.304-.71-.304h-1.39l-.376 2.133H77.4c.29 0 .543-.102.763-.308l.001-.004zM96.28 45.855l-.228-1.297h-2.931l-.678 1.297h-1.537l3.775-7.208h1.787l1.267 7.208H96.28zm-2.466-2.626h2.003l-.433-3.008-1.57 3.008zM106.681 38.645c.727 0 1.291.238 1.689.715.399.477.542 1.07.433 1.777a2.646 2.646 0 01-.937 1.695c-.521.436-1.187.654-1.998.654h-1.204l-.419 2.37h-1.412l1.274-7.21h2.575l-.001-.001zm.713 2.39c.062-.322.014-.581-.144-.772-.159-.192-.419-.288-.784-.288h-1.184l-.386 2.184h1.117c.378 0 .686-.102.927-.308a1.36 1.36 0 00.453-.815l.001-.001zM117.155 38.645c.727 0 1.291.238 1.689.715.399.477.542 1.07.433 1.777a2.646 2.646 0 01-.937 1.695c-.521.436-1.187.654-1.998.654h-1.204l-.419 2.37h-1.412l1.274-7.21h2.575l-.001-.001zm.713 2.39c.062-.322.014-.581-.145-.772-.158-.192-.419-.288-.783-.288h-1.184l-.387 2.184h1.118c.378 0 .686-.102.926-.308a1.35 1.35 0 00.453-.815l.002-.001z" fill="#442698"></path><path d="M114.189 21.092l.973-4.294a.572.572 0 00-.557-.696h-5.107l-1.131 4.99-1.252 5.528h11.164l1.095-4.833a.571.571 0 00-.557-.696h-4.628v.001z" fill="#B5A5FA"></path><path d="M107.115 26.62l-.972 4.294a.57.57 0 00.557.696h5.106l1.131-4.99 1.252-5.528h-11.164l-1.095 4.833a.571.571 0 00.557.696h4.628v-.001z" fill="#442698"></path></svg>